<?xml version="1.0" standalone="no"?>
<!DOCTYPE svg PUBLIC "-//W3C//DTD SVG 20010904//EN"
 "http://www.w3.org/TR/2001/REC-SVG-20010904/DTD/svg10.dtd">
<svg version="1.0" xmlns="http://www.w3.org/2000/svg"
 width="926.000000pt" height="926.000000pt" viewBox="0 0 926.000000 926.000000"
 preserveAspectRatio="xMidYMid meet">
<metadata>
Created by potrace 1.11, written by Peter Selinger 2001-2013
</metadata>
<g transform="translate(0.000000,926.000000) scale(0.100000,-0.100000)"
fill="#000000" stroke="none">
<path d="M4981 9247 c-5 -5 -148 -89 -317 -187 l-308 -177 -88 -154 c-48 -85
-90 -161 -94 -169 -4 -8 -37 -68 -73 -134 -147 -264 -136 -228 -117 -361 10
-66 14 -104 32 -247 16 -129 19 -138 45 -157 l28 -21 19 33 c11 17 22 48 26
67 3 19 8 44 10 55 2 11 16 80 31 154 26 130 29 138 83 215 47 69 93 131 162
219 48 62 51 63 222 101 l167 36 90 -42 c62 -29 91 -48 95 -62 3 -12 8 -99 12
-194 l6 -173 -114 -112 c-301 -294 -704 -684 -768 -742 -229 -208 -377 -343
-390 -355 -9 -8 -58 -53 -110 -100 -210 -190 -194 -171 -214 -255 -10 -41 -21
-75 -25 -75 -6 0 -41 32 -239 221 -57 55 -108 99 -113 99 -5 0 -36 -21 -68
-46 -46 -36 -70 -66 -110 -135 -28 -49 -51 -94 -51 -100 0 -11 54 -190 180
-594 85 -273 111 -355 180 -580 30 -93 55 -184 57 -200 3 -20 -27 -139 -82
-325 -47 -162 -88 -304 -90 -315 -3 -11 -18 -65 -35 -120 -29 -97 -38 -146
-23 -131 4 4 21 -6 38 -22 86 -84 127 -121 131 -121 3 0 33 -24 67 -55 34 -30
82 -72 107 -93 24 -21 54 -47 65 -58 12 -11 51 -45 86 -75 35 -30 80 -69 99
-87 19 -18 39 -33 43 -33 5 0 5 -5 2 -10 -4 -6 -2 -9 3 -8 6 2 37 -20 69 -49
67 -60 127 -112 163 -142 l25 -20 -36 -68 c-20 -37 -117 -196 -215 -353 -127
-204 -200 -333 -257 -455 -43 -93 -96 -206 -117 -250 -96 -200 -98 -207 -104
-306 -4 -52 -9 -110 -11 -129 -2 -19 -7 -87 -10 -150 -3 -63 -8 -131 -10 -150
-2 -19 -6 -75 -10 -125 -3 -49 -8 -118 -11 -152 -5 -53 -3 -67 15 -92 12 -16
21 -34 21 -39 0 -6 6 -17 13 -24 20 -21 67 -97 67 -108 0 -5 5 -10 10 -10 6 0
10 -7 10 -15 0 -8 4 -15 8 -15 5 0 15 -12 22 -27 8 -16 25 -43 38 -60 12 -18
20 -33 17 -33 -3 0 3 -10 15 -22 11 -12 26 -34 32 -50 7 -15 17 -28 21 -28 5
0 6 -4 3 -9 -3 -5 1 -11 9 -15 8 -3 15 -12 15 -19 0 -8 7 -20 15 -27 9 -7 13
-15 11 -17 -3 -3 0 -10 5 -17 40 -47 50 -62 61 -87 7 -16 16 -29 19 -29 4 0
12 -13 19 -30 7 -16 16 -30 21 -30 5 0 9 -5 9 -11 0 -6 16 -33 35 -59 19 -26
32 -50 28 -54 -3 -3 -1 -6 5 -6 7 0 12 -7 12 -15 0 -8 5 -15 10 -15 6 0 10 -4
10 -9 0 -6 11 -22 25 -37 13 -14 22 -30 20 -34 -3 -5 -2 -10 3 -12 4 -1 22
-22 40 -45 28 -36 39 -42 85 -48 28 -4 61 -9 72 -11 11 -3 38 -7 60 -9 22 -3
48 -8 58 -11 10 -3 30 -7 45 -10 15 -2 43 -6 62 -9 19 -3 51 -7 70 -10 19 -3
46 -7 60 -10 14 -3 43 -8 65 -10 22 -3 47 -7 55 -10 8 -2 33 -7 55 -10 23 -3
51 -7 64 -10 14 -3 36 4 52 16 16 11 29 17 29 12 0 -4 5 0 11 9 5 10 14 18 20
18 5 0 37 18 70 40 33 22 65 40 70 40 5 0 9 5 9 10 0 6 6 10 14 10 7 0 19 7
26 15 7 9 15 13 17 11 3 -3 14 4 26 15 11 10 27 19 34 19 7 0 13 5 13 11 0 5
4 8 9 5 5 -3 12 1 15 10 3 8 10 12 16 9 5 -3 10 -2 10 3 0 5 18 17 40 27 22
10 40 22 40 27 0 4 7 8 15 8 8 0 15 5 15 10 0 6 6 10 13 10 8 0 24 9 37 20 13
11 27 20 31 20 4 0 15 18 25 40 10 22 22 40 28 40 5 0 6 3 3 6 -4 4 2 19 11
33 10 14 27 45 37 68 11 24 24 43 28 43 5 0 6 4 3 9 -3 5 1 14 9 21 8 6 19 27
25 46 6 19 16 34 21 34 6 0 8 4 4 9 -3 5 -1 13 5 16 9 5 36 56 94 172 6 13 15
23 19 23 5 0 6 4 2 9 -3 5 -1 12 4 15 5 4 19 26 31 50 18 37 20 56 16 113 -3
37 -8 79 -11 93 -2 14 -7 50 -9 80 -3 30 -8 71 -11 90 -2 19 -7 58 -10 85 -9
76 -23 111 -50 123 -21 10 -27 8 -43 -16 -11 -15 -23 -49 -27 -77 -5 -27 -9
-52 -10 -55 -1 -3 -5 -25 -10 -50 -5 -25 -9 -47 -10 -50 -1 -3 -5 -27 -10 -55
-10 -64 -18 -84 -45 -115 -29 -34 -40 -47 -148 -177 -95 -115 -101 -119 -164
-127 -36 -5 -60 -9 -133 -21 -16 -3 -50 -8 -75 -11 -24 -3 -48 -8 -52 -10 -7
-5 -163 68 -177 82 -2 2 -6 44 -9 94 l-4 90 89 107 c49 60 156 189 238 288 81
99 166 198 189 219 22 22 95 92 161 155 66 64 147 140 180 170 33 29 101 91
150 136 50 45 144 130 210 190 66 59 156 141 200 181 44 40 90 81 103 92 17
15 31 51 53 139 16 65 31 127 33 139 2 11 18 77 35 145 40 166 117 486 125
525 6 25 0 39 -31 80 -20 27 -39 51 -42 54 -3 3 -52 67 -109 142 l-104 136 28
31 c15 17 31 28 37 24 6 -3 7 -1 3 5 -4 7 -3 12 2 12 5 0 32 21 60 48 28 26
58 53 66 59 15 13 13 44 -7 93 -4 8 -8 27 -11 42 -3 15 -7 31 -10 36 -3 5 -7
19 -10 33 -2 13 -12 44 -20 68 -9 24 -14 46 -11 49 3 3 1 10 -4 16 -6 6 -12
23 -14 36 -2 14 -7 32 -10 40 -8 21 -27 83 -32 106 -8 33 -23 87 -44 159 -12
39 -23 79 -26 90 -2 11 -10 40 -18 65 -8 25 -13 50 -11 55 4 19 66 220 111
365 25 80 56 181 70 225 14 44 35 112 48 150 12 39 37 117 55 175 17 58 51
166 75 240 23 74 48 156 55 182 l12 46 -56 99 c-38 67 -67 106 -93 123 -66 45
-66 43 -29 123 19 40 63 133 99 207 59 124 65 142 71 220 4 47 9 105 11 130 3
25 7 79 10 120 3 41 10 127 15 190 5 63 12 149 15 190 4 41 8 97 11 124 5 49
-12 116 -30 116 -5 0 -7 3 -3 6 3 3 -2 14 -11 25 -9 11 -16 22 -14 25 1 2 -7
14 -18 26 -11 12 -20 27 -20 34 0 6 -7 17 -15 24 -8 7 -12 16 -9 21 3 5 1 9
-4 9 -5 0 -14 10 -20 23 -7 12 -24 40 -37 62 -14 22 -28 48 -32 58 -3 9 -9 17
-12 17 -4 0 -17 19 -30 43 -25 48 -35 64 -73 124 -16 23 -28 46 -28 52 0 6 -4
11 -8 11 -10 0 -37 50 -34 63 1 4 -3 7 -8 7 -6 0 -10 7 -10 15 0 8 -3 15 -8
15 -4 0 -12 8 -17 19 -36 68 -59 107 -65 111 -11 8 -35 54 -32 63 1 4 -3 7 -8
7 -6 0 -10 5 -10 10 0 10 -44 63 -84 101 -11 10 -29 22 -40 26 -65 21 -778
157 -785 150z"/>
</g>
</svg>
